<svg version="1.1" id="Layer_1" xmlns="http://www.w3.org/2000/svg" xmlns:xlink="http://www.w3.org/1999/xlink" x="0px" y="0px"
	 width="100%" viewBox="0 0 1514 967" enable-background="new 0 0 1514 967" xml:space="preserve">
<path fill="#0080FE" opacity="1.000000" stroke="none" 
	d="
M529.000000,968.000000 
	C527.933289,968.000000 526.866638,968.000000 525.093872,967.736267 
	C520.591858,967.648376 516.795898,967.824219 513.000000,968.000000 
	C512.250000,968.000000 511.500000,968.000000 510.694397,967.686890 
	C508.167419,966.623413 505.675049,965.935547 503.228027,965.112732 
	C485.349579,959.101257 467.522369,952.934021 449.598938,947.060364 
	C415.976929,936.042419 382.260437,925.311951 348.660248,914.228577 
	C321.781586,905.362427 295.008392,896.175903 268.206268,887.078918 
	C257.912811,883.585205 247.704025,879.839966 237.391037,876.406433 
	C229.103760,873.647461 220.672531,871.320923 212.384323,868.564514 
	C193.547867,862.300110 174.929108,855.313049 155.895737,849.731873 
	C142.238251,845.727112 130.694748,839.539001 122.075890,827.983154 
	C111.560394,813.884399 108.210304,798.141052 111.885277,781.295227 
	C114.125610,771.025696 118.297287,761.179443 121.567535,751.132019 
	C124.829254,741.110901 128.183868,731.115845 131.167374,721.011841 
	C131.732834,719.096802 131.554749,716.006897 130.361969,714.675476 
	C118.125671,701.017090 104.868675,688.208313 93.363304,673.976685 
	C79.779854,657.174622 66.298637,640.010986 55.200386,621.545227 
	C39.270130,595.039795 26.891996,566.630066 17.596855,536.990112 
	C8.612450,508.341034 4.478487,478.907990 2.897432,448.684326 
	C2.915887,440.205170 2.879226,432.083099 2.921248,423.532349 
	C4.982970,405.992218 6.020526,388.703278 9.191690,371.814941 
	C13.035978,351.341827 17.232227,330.826355 25.335814,311.407898 
	C32.832832,293.442963 39.188221,274.939331 47.676170,257.464539 
	C60.982525,230.069778 77.593964,204.598099 96.537766,180.668091 
	C110.966873,162.441101 126.706627,145.421890 143.656967,129.586716 
	C154.174591,119.761047 165.142746,110.275269 176.756866,101.799156 
	C193.996231,89.217667 211.372910,76.598976 229.829819,65.974159 
	C248.489822,55.232418 268.434753,46.681171 288.001801,37.567509 
	C311.790405,26.487602 336.856628,19.007885 362.471558,13.757630 
	C382.389862,9.675017 402.584229,6.863392 422.729858,4.008808 
	C429.475067,3.053033 436.454712,3.837891 443.312195,3.511419 
	C444.578461,3.451136 445.772583,1.875965 447.000000,0.999998 
	C448.714447,1.000000 450.428925,1.000000 452.804504,1.291988 
	C454.959290,1.669243 456.452911,1.754510 458.416290,1.891731 
	C471.024689,2.086876 483.163269,2.259714 495.302338,2.312673 
	C496.199615,2.316588 497.100677,1.457742 498.000000,0.999995 
	C498.750000,1.000000 499.500000,1.000000 500.316559,1.354890 
	C502.621155,2.029550 504.859070,2.628239 507.097260,2.629113 
	C623.256348,2.674459 739.415466,2.669072 855.574585,2.669073 
	C936.439209,2.669073 1017.303833,2.669089 1098.168457,2.669135 
	C1099.335083,2.669136 1100.510498,2.575799 1101.666748,2.685320 
	C1108.418579,3.324849 1114.553589,5.549340 1119.451172,10.368987 
	C1127.993530,18.775297 1130.072754,29.101852 1126.293457,40.055012 
	C1122.132080,52.115448 1112.196777,57.685070 1100.083496,57.918682 
	C1071.541260,58.469151 1042.983765,58.292553 1014.432495,58.309525 
	C960.320557,58.341690 906.208679,58.311150 852.096741,58.291744 
	C809.614746,58.276512 767.132751,58.237148 724.650757,58.212173 
	C712.722290,58.205162 700.793884,58.211105 687.506592,58.211105 
	C696.722534,64.114746 704.563049,69.454926 712.702148,74.292671 
	C739.146301,90.010483 763.223328,108.922974 785.570984,129.869766 
	C804.283630,147.409424 822.445801,165.655548 837.016052,187.013168 
	C842.612549,195.216751 848.071045,201.060089 860.157593,200.895065 
	C925.523438,200.002625 990.906677,200.366180 1056.283936,200.336517 
	C1102.190063,200.315674 1148.096313,200.369003 1194.002441,200.369431 
	C1236.618164,200.369827 1279.234253,200.418137 1321.849609,200.284363 
	C1334.546631,200.244507 1345.547974,203.546417 1354.319214,213.349976 
	C1365.407593,225.743210 1367.969971,240.234680 1364.385376,255.707718 
	C1361.742065,267.118011 1353.062622,274.439484 1343.394165,280.361237 
	C1334.769043,285.643890 1325.065308,285.322388 1315.472168,285.323181 
	C1178.147705,285.334564 1040.823242,285.330872 903.498840,285.331360 
	C901.998962,285.331360 900.421448,285.056305 899.025757,285.439789 
	C898.046814,285.708771 897.315918,286.880615 896.179138,287.789001 
	C897.048462,291.731964 898.212952,295.535248 899.377380,299.338562 
	C899.962402,299.158691 900.547485,298.978821 901.182739,298.811951 
	C901.233032,298.824951 901.218567,298.927765 901.180359,299.340179 
	C903.040955,306.018158 904.939819,312.283722 906.838684,318.549286 
	C907.311890,318.276001 907.785095,318.002716 908.598755,317.914246 
	C909.274536,319.373047 909.597168,320.650543 909.947021,321.920532 
	C914.727295,339.273285 919.924744,356.525635 924.129028,374.016754 
	C926.408691,383.501221 927.108032,393.378204 928.321533,403.102905 
	C929.769653,414.706970 931.154175,426.323700 932.242493,437.965179 
	C932.570923,441.478485 934.010132,443.241241 937.315002,443.250488 
	C943.042908,443.266510 948.771606,443.017731 954.881836,443.065186 
	C965.519653,443.448303 975.775452,443.646179 986.453247,443.894836 
	C988.114014,443.709290 989.349304,443.290741 990.592224,443.266724 
	C997.691223,443.129700 1004.792114,443.086609 1012.165161,443.348938 
	C1017.625549,443.511871 1022.813171,443.337402 1028.320801,443.427124 
	C1036.801270,443.515839 1044.961548,443.340363 1053.139404,443.068848 
	C1053.156860,442.972839 1052.966431,442.930115 1053.423828,443.012634 
	C1057.548340,443.068054 1061.215454,443.040894 1065.100342,443.321167 
	C1077.367920,443.748779 1089.418823,444.026276 1101.466919,443.930023 
	C1108.659058,443.872589 1115.846436,443.229034 1123.491455,442.971619 
	C1132.733643,443.156586 1141.520386,443.287903 1150.307007,443.267548 
	C1171.965088,443.217438 1193.622925,443.024200 1215.280884,443.027466 
	C1235.363403,443.030457 1255.445801,443.256958 1275.528442,443.305725 
	C1297.775146,443.359711 1320.022217,443.365112 1342.268921,443.306213 
	C1351.013306,443.283051 1359.757202,443.028320 1368.812134,443.117554 
	C1376.194946,443.570404 1383.269409,444.009705 1390.338257,443.934113 
	C1397.061401,443.862213 1403.778809,443.252319 1410.984253,443.053345 
	C1412.480103,443.111511 1413.490356,442.995300 1414.785278,443.063721 
	C1422.007202,443.314697 1428.944336,443.381042 1436.328613,443.401215 
	C1448.887085,443.307007 1461.023438,442.785278 1473.099731,443.414459 
	C1478.976318,443.720642 1485.211792,445.230865 1490.464355,447.844788 
	C1504.009033,454.585266 1511.314819,466.276550 1513.832031,481.429382 
	C1514.211182,482.201172 1514.605591,482.600616 1515.000000,483.000000 
	C1515.000000,484.388885 1515.000000,485.777802 1514.590576,487.477600 
	C1513.734009,490.547272 1513.462158,493.348114 1512.811646,496.058044 
	C1507.901123,516.512268 1492.037964,527.293518 1472.080933,528.200745 
	C1457.463745,528.865295 1442.792114,528.332031 1428.144775,528.332092 
	C1359.585938,528.332275 1291.026978,528.332275 1222.468140,528.332275 
	C1131.383423,528.332336 1040.298706,528.331299 949.213989,528.335205 
	C944.918945,528.335388 940.587036,528.056396 936.344543,528.540405 
	C934.262878,528.777954 931.658264,529.998474 930.544739,531.630188 
	C929.368958,533.353149 929.787415,536.115173 929.335632,538.388672 
	C925.882568,555.764893 923.171875,573.338989 918.677429,590.443420 
	C914.443909,606.555176 908.687073,622.306396 902.896729,637.955811 
	C898.823730,648.964172 893.628540,659.561768 888.820862,670.291931 
	C886.633362,675.174255 884.171509,679.933594 881.530518,685.373962 
	C887.394043,685.675964 892.156494,685.921204 896.607239,686.400269 
	C893.651428,686.835754 891.007446,687.037537 888.363403,687.239319 
	C897.307373,688.045898 906.206482,688.105347 915.102356,687.963257 
	C916.103455,687.947266 917.086426,686.792786 918.526855,686.095459 
	C928.629089,686.016541 938.282837,685.949524 947.935364,686.030579 
	C951.563843,686.061035 955.191345,686.647278 958.815918,686.613525 
	C970.916931,686.501038 983.015930,686.096680 995.116516,686.063538 
	C1000.732483,686.048157 1006.350830,686.901001 1011.966797,686.885559 
	C1022.866577,686.855652 1033.765015,686.350342 1044.664795,686.313843 
	C1051.667236,686.290344 1058.672607,686.977173 1065.674438,686.940552 
	C1074.762451,686.893066 1083.848633,686.443115 1093.000610,686.464966 
	C1097.481812,687.162964 1101.896240,687.587891 1106.319336,687.883484 
	C1106.529175,687.897461 1106.815552,686.765015 1107.452881,686.106567 
	C1112.009155,686.037109 1116.182129,685.917236 1120.347778,686.042236 
	C1128.124634,686.275513 1135.897217,686.901245 1143.671387,686.898010 
	C1151.664429,686.894714 1159.655396,686.133850 1167.650391,686.064758 
	C1181.087891,685.948608 1194.527832,686.117615 1208.019287,686.471191 
	C1215.165161,687.058167 1222.257812,687.353027 1229.352905,687.569092 
	C1229.593994,687.576477 1229.859253,686.791321 1230.459106,686.357544 
	C1233.401367,686.658325 1236.015259,686.874207 1238.591309,687.312439 
	C1255.472412,690.184265 1270.799438,712.300110 1270.545776,729.400879 
	C1270.232910,750.492188 1249.468262,771.243591 1228.859497,771.840454 
	C1208.434570,772.431946 1187.977661,771.924438 1167.534790,771.881775 
	C1141.027100,771.826416 1114.519287,771.693848 1088.011597,771.707581 
	C1065.139648,771.719421 1042.267822,771.957092 1019.395874,771.965942 
	C1004.641724,771.971680 989.887512,771.663269 975.133179,771.643433 
	C958.920349,771.621582 942.707397,771.792053 926.494385,771.836975 
	C908.759888,771.886108 891.025208,771.857666 873.290771,771.918274 
	C856.674438,771.975037 840.035095,772.639771 823.454529,771.918152 
	C817.441528,771.656494 813.609070,773.411438 809.379944,777.000122 
	C796.878357,787.608398 784.743652,798.854858 771.202942,807.977905 
	C756.117004,818.142151 740.109009,827.237305 723.646179,834.976624 
	C706.203674,843.176575 688.042480,850.135986 669.674255,856.007629 
	C645.256714,863.813171 620.006897,868.414551 594.466125,871.014648 
	C591.270020,871.340027 590.065125,872.677063 589.165466,875.508911 
	C583.809570,892.367554 578.153503,909.131226 572.847229,926.005066 
	C566.665833,945.661926 554.843079,959.567932 534.368896,965.131897 
	C532.460449,965.650574 530.784119,967.023621 529.000000,968.000000 
M431.085907,445.189209 
	C440.827637,444.129120 448.279114,439.338318 453.652313,431.237976 
	C460.581360,420.792084 461.659393,409.620483 456.270874,398.416168 
	C449.376801,384.081451 441.781219,370.084198 434.492126,355.939392 
	C427.859009,343.067657 420.797424,330.393829 414.724060,317.263062 
	C408.702759,304.244934 392.737335,297.157074 377.849670,301.570770 
	C361.646179,306.374603 351.886627,324.436768 357.010071,340.897125 
	C359.724243,349.617126 364.047272,357.890015 368.150787,366.111816 
	C374.851501,379.537323 381.812531,392.839355 388.950317,406.038483 
	C396.066132,419.197021 399.860840,434.706116 414.176331,443.509155 
	C418.115875,447.764557 426.686707,448.890625 431.085907,445.189209 
M159.658859,607.851379 
	C159.163727,608.107361 158.668594,608.363403 158.173447,608.619385 
	C161.763123,610.795166 165.337555,612.997681 168.980591,615.080078 
	C169.198074,615.204346 169.964691,614.367981 171.223495,614.341980 
	C173.228882,615.462891 175.190292,616.672668 177.246384,617.691223 
	C200.820175,629.368408 225.647003,634.104309 251.807419,630.588379 
	C266.870117,628.564026 281.343262,624.004150 294.495087,616.516602 
	C312.540771,606.243042 328.340759,593.238831 341.604584,576.862732 
	C352.538940,563.362671 359.947784,548.145081 365.298828,532.192566 
	C371.172607,514.681885 372.916290,496.269165 371.939697,477.488007 
	C370.790710,455.391296 365.139526,434.709656 354.281830,415.830475 
	C338.751831,388.827057 315.715179,370.145752 286.420288,359.135925 
	C267.147919,351.892822 247.490677,348.896912 227.017471,351.743286 
	C203.520569,355.010040 181.910019,363.021271 162.843033,377.319885 
	C150.006363,386.946289 138.573242,398.046112 129.915283,411.633820 
	C117.086426,431.767334 108.330711,453.443604 104.930832,477.298889 
	C102.770470,492.457092 102.579178,507.519623 106.108147,522.277222 
	C110.262856,539.651611 115.946335,556.358276 125.935730,571.782898 
	C135.254868,586.172607 146.986176,597.516724 159.658859,607.851379 
M548.212036,527.765625 
	C543.229675,533.057312 537.349792,537.765503 533.451538,543.761963 
	C525.290039,556.316162 517.615540,569.268188 510.879669,582.630859 
	C507.871094,588.599243 507.671173,595.966919 506.090912,602.674622 
	C497.279388,640.076416 503.347870,675.059814 522.893738,707.962036 
	C534.946838,728.251526 551.820740,743.410095 572.274780,754.707153 
	C596.254395,767.951599 621.890747,772.128235 649.067993,768.801880 
	C680.779541,764.920532 707.128540,750.571594 729.455505,728.453796 
	C744.640442,713.411133 755.332886,695.350708 762.620728,675.216187 
	C772.817810,647.043823 774.023987,618.522095 766.342896,589.641235 
	C759.737732,564.806152 747.777222,543.226440 728.693604,525.483093 
	C698.665527,497.563995 663.500549,485.264771 622.986267,490.582794 
	C594.392334,494.336090 569.427856,506.846497 548.212036,527.765625 
M638.640320,396.005280 
	C631.636719,378.450653 609.055664,372.348175 593.420471,381.602966 
	C584.603210,386.822144 575.410034,391.402008 566.459717,396.401459 
	C548.853210,406.236115 531.103821,415.837006 513.785278,426.158234 
	C500.884979,433.846405 497.269653,449.907501 502.928680,463.977203 
	C510.261047,482.207214 531.562744,487.085724 546.048767,479.421570 
	C556.854675,473.704407 567.384277,467.465973 578.050842,461.484406 
	C594.477966,452.272308 611.021790,443.260559 627.273743,433.749634 
	C631.110596,431.504242 634.818726,428.124176 637.129333,424.369629 
	C642.467468,415.695496 642.547363,406.222839 638.640320,396.005280 
M319.443878,704.131714 
	C322.312592,705.310364 325.121521,706.671814 328.061340,707.632996 
	C336.373901,710.350708 344.791565,712.752502 353.073425,715.557373 
	C366.215759,720.008362 379.258575,724.752625 392.386749,729.246399 
	C403.355621,733.001038 414.372253,736.618347 425.395386,740.211487 
	C431.781647,742.293274 438.222656,744.207031 446.053223,746.634827 
	C442.843506,722.654968 437.236786,700.303284 433.003601,677.710388 
	C428.728790,654.895325 426.138153,631.738953 419.498596,608.997864 
	C411.682556,615.898499 404.258026,622.236267 397.082947,628.844910 
	C388.692627,636.572815 380.631592,644.658630 372.229279,652.373108 
	C355.030365,668.164001 337.677765,683.787537 320.483795,699.583801 
	C319.614136,700.382629 319.642670,702.159119 319.443878,704.131714 
z"/>


















<path fill="#6A80FF" opacity="1.000000" stroke="none" 
	d="
M896.607239,686.400269 
	C903.656616,686.125000 910.394165,686.083496 917.604797,686.104126 
	C917.086426,686.792786 916.103455,687.947266 915.102356,687.963257 
	C906.206482,688.105347 897.307373,688.045898 888.363403,687.239319 
	C891.007446,687.037537 893.651428,686.835754 896.607239,686.400269 
z"/>
<path fill="#6280EB" opacity="1.000000" stroke="none" 
	d="
M901.180359,299.340179 
	C903.558350,304.942535 905.898132,310.957306 908.248108,317.350769 
	C907.785095,318.002716 907.311890,318.276001 906.838684,318.549286 
	C904.939819,312.283722 903.040955,306.018158 901.180359,299.340179 
z"/>
<path fill="#7680FF" opacity="1.000000" stroke="none" 
	d="
M1208.019287,686.471191 
	C1215.043701,686.134949 1222.120850,686.103333 1229.655518,686.223633 
	C1229.859253,686.791321 1229.593994,687.576477 1229.352905,687.569092 
	C1222.257812,687.353027 1215.165161,687.058167 1208.019287,686.471191 
z"/>
<path fill="#5D80F0" opacity="1.000000" stroke="none" 
	d="
M414.251587,443.159668 
	C419.495331,443.686157 424.663818,444.562103 430.149567,445.543762 
	C426.686707,448.890625 418.115875,447.764557 414.251587,443.159668 
z"/>

<path fill="#6280F2" opacity="1.000000" stroke="none" 
	d="
M159.959656,607.802124 
	C163.545654,609.748108 166.830872,611.743286 170.295929,613.858521 
	C169.964691,614.367981 169.198074,615.204346 168.980591,615.080078 
	C165.337555,612.997681 161.763123,610.795166 158.173462,608.619385 
	C158.668594,608.363403 159.163727,608.107361 159.959656,607.802124 
z"/>
<path fill="#6E80FF" opacity="1.000000" stroke="none" 
	d="
M1093.000610,686.464966 
	C1097.335571,686.116455 1101.735718,686.066467 1106.601074,686.091553 
	C1106.815552,686.765015 1106.529175,687.897461 1106.319336,687.883484 
	C1101.896240,687.587891 1097.481812,687.162964 1093.000610,686.464966 
z"/>
<path fill="#6680F5" opacity="1.000000" stroke="none" 
	d="
M896.179138,287.789001 
	C898.051147,291.122559 899.627991,294.595825 901.168701,298.434021 
	C900.547485,298.978821 899.962402,299.158691 899.377380,299.338562 
	C898.212952,295.535248 897.048462,291.731964 896.179138,287.789001 
z"/>
<path fill="#008080" opacity="1.000000" stroke="none" 
	d="
M1028.320801,443.427124 
	C1036.057007,443.128479 1044.113403,443.094025 1052.645752,443.112213 
	C1044.961548,443.340363 1036.801270,443.515839 1028.320801,443.427124 
z"/>
</svg>